<svg xmlns="http://www.w3.org/2000/svg" viewBox="0 0 64 64">
  <defs>
    <linearGradient id="bananaBody" x1="0%" x2="100%" y1="0%" y2="100%">
      <stop offset="0%" stop-color="#ffe97d" />
      <stop offset="55%" stop-color="#ffd347" />
      <stop offset="100%" stop-color="#ffb624" />
    </linearGradient>
    <linearGradient id="bananaEdge" x1="0%" x2="100%" y1="0%" y2="100%">
      <stop offset="0%" stop-color="#f7a316" />
      <stop offset="100%" stop-color="#d87400" />
    </linearGradient>
  </defs>

  <rect width="64" height="64" rx="18" fill="#fffaf0" />
  <path
    d="M17 42c7.4 8.6 18.3 11.4 29.3 8.4 5.4-1.5 8.6-5.1 10.7-10.8-7.1 3.7-13.6 5-19.5 4.3-6-.7-11.8-3.6-17.6-9.3-.7 2.6-1.7 4.7-2.9 7.4Z"
    fill="url(#bananaBody)"
    stroke="url(#bananaEdge)"
    stroke-linecap="round"
    stroke-linejoin="round"
    stroke-width="3.6"
  />
  <path
    d="M18.2 41.8c7.2 6.2 15 8.8 23.4 8.3"
    fill="none"
    stroke="#fff9cf"
    stroke-linecap="round"
    stroke-width="2.2"
  />
  <path
    d="M14.8 31.6c2.2.1 4.4-.7 5.8-2.8"
    fill="none"
    stroke="#825200"
    stroke-linecap="round"
    stroke-width="3"
  />
  <circle cx="56.2" cy="37" r="3.2" fill="#8b5a00" />
</svg>
